<svg width="53" height="53" viewBox="0 0 53 53" fill="none" xmlns="http://www.w3.org/2000/svg">
<circle cx="26.5" cy="26.5" r="26.5" fill="#E5F7FF"/>
<path fill-rule="evenodd" clip-rule="evenodd" d="M27 29.5C28.3807 29.5 29.5 28.3807 29.5 27C29.5 25.6193 28.3807 24.5 27 24.5C25.6193 24.5 24.5 25.6193 24.5 27C24.5 28.3807 25.6193 29.5 27 29.5ZM31 27C31 29.2091 29.2091 31 27 31C24.7909 31 23 29.2091 23 27C23 24.7909 24.7909 23 27 23C29.2091 23 31 24.7909 31 27Z" fill="#1FB9FC"/>
<path fill-rule="evenodd" clip-rule="evenodd" d="M25.9047 17.8419L25.5172 19.0045C25.1904 19.9849 24.4733 20.6794 23.7221 21.0976C23.6581 21.1333 23.5947 21.17 23.5319 21.2077C22.7933 21.6511 21.8319 21.9257 20.8183 21.7183L19.6165 21.4723C19.4057 21.4292 19.1909 21.5258 19.0833 21.7122L18.4623 22.7878C18.3547 22.9741 18.3784 23.2085 18.5212 23.3695L19.3362 24.2886C20.0203 25.06 20.2653 26.0268 20.2516 26.8882C20.2504 26.9627 20.2504 27.0373 20.2516 27.1118C20.2652 27.9732 20.0203 28.9399 19.3362 29.7113L18.5212 30.6304C18.3784 30.7915 18.3547 31.0258 18.4623 31.2122L19.0833 32.2878C19.1909 32.4741 19.4057 32.5707 19.6165 32.5276L20.8182 32.2817C21.8319 32.0743 22.7932 32.3489 23.5319 32.7923C23.5946 32.83 23.6581 32.8667 23.7222 32.9024C24.4733 33.3206 25.1904 34.0151 25.5172 34.9955L25.9047 36.1581C25.9728 36.3623 26.1639 36.5 26.3791 36.5H27.621C27.8363 36.5 28.0273 36.3623 28.0954 36.1581L28.4829 34.9955C28.8097 34.0151 29.5268 33.3206 30.278 32.9024C30.342 32.8667 30.4055 32.83 30.4683 32.7923C31.2069 32.3489 32.1683 32.0743 33.1819 32.2817L34.3835 32.5276C34.5944 32.5707 34.8092 32.4741 34.9168 32.2878L35.5378 31.2122C35.6454 31.0258 35.6216 30.7915 35.4789 30.6304L34.6639 29.7114C33.9798 28.94 33.7349 27.9732 33.7485 27.1118C33.7497 27.0373 33.7497 26.9627 33.7485 26.8882C33.7349 26.0267 33.9798 25.06 34.6639 24.2885L35.4789 23.3695C35.6217 23.2085 35.6454 22.9741 35.5378 22.7878L34.9168 21.7122C34.8092 21.5258 34.5944 21.4292 34.3835 21.4723L33.1818 21.7183C32.1682 21.9257 31.2069 21.6511 30.4682 21.2076C30.4054 21.17 30.342 21.1333 30.278 21.0976C29.5268 20.6794 28.8097 19.9849 28.4829 19.0045L28.0954 17.8419C28.0273 17.6377 27.8363 17.5 27.621 17.5H26.3791C26.1639 17.5 25.9728 17.6377 25.9047 17.8419ZM24.0942 18.5302C23.9119 19.0769 23.4959 19.5067 22.9924 19.7871C22.9141 19.8307 22.8366 19.8755 22.7599 19.9216C22.2652 20.2186 21.6843 20.3644 21.119 20.2487L19.9173 20.0028C19.0739 19.8302 18.2147 20.2167 17.7842 20.9622L17.1633 22.0378C16.7328 22.7833 16.8278 23.7206 17.3989 24.3647L18.2139 25.2838C18.5959 25.7145 18.7609 26.2889 18.7518 26.8644C18.7504 26.9548 18.7504 27.0452 18.7518 27.1355C18.7609 27.7111 18.5958 28.2854 18.2139 28.7161L17.3989 29.6352C16.8278 30.2793 16.7328 31.2167 17.1633 31.9622L17.7842 33.0378C18.2147 33.7833 19.0739 34.1697 19.9173 33.9971L21.119 33.7512C21.6842 33.6356 22.2651 33.7814 22.7598 34.0784C22.8365 34.1244 22.9141 34.1693 22.9924 34.2129C23.4959 34.4933 23.9119 34.9231 24.0942 35.4698L24.4817 36.6325C24.7539 37.4491 25.5182 38 26.3791 38H27.621C28.4819 38 29.2462 37.4491 29.5184 36.6325L29.906 35.4698C30.0882 34.9231 30.5042 34.4933 31.0077 34.2129C31.086 34.1693 31.1636 34.1244 31.2403 34.0784C31.735 33.7814 32.3159 33.6356 32.8812 33.7512L34.0828 33.9971C34.9262 34.1697 35.7854 33.7833 36.2158 33.0378L36.8368 31.9622C37.2672 31.2167 37.1723 30.2793 36.6012 29.6352L35.7862 28.7162C35.4043 28.2855 35.2392 27.7111 35.2483 27.1356C35.2498 27.0452 35.2498 26.9548 35.2483 26.8644C35.2392 26.2888 35.4043 25.7144 35.7862 25.2838L36.6012 24.3647C37.1723 23.7206 37.2672 22.7833 36.8368 22.0378L36.2158 20.9622C35.7854 20.2167 34.9262 19.8302 34.0828 20.0028L32.8811 20.2487C32.3158 20.3644 31.735 20.2186 31.2403 19.9216C31.1635 19.8755 31.086 19.8307 31.0077 19.7871C30.5042 19.5067 30.0882 19.0769 29.906 18.5302L29.5184 17.3675C29.2462 16.5509 28.4819 16 27.621 16H26.3791C25.5182 16 24.7539 16.5509 24.4817 17.3675L24.0942 18.5302Z" fill="#1FB9FC"/>
</svg>
