<svg width="53" height="53" viewBox="0 0 53 53" fill="none" xmlns="http://www.w3.org/2000/svg">
<circle cx="26.5" cy="26.5" r="26.5" fill="#FFF0E6"/>
<path fill-rule="evenodd" clip-rule="evenodd" d="M27 16.25C27.4142 16.25 27.75 16.5858 27.75 17V18.0347C31.5697 18.3898 34.6102 21.4303 34.9653 25.25H36C36.4142 25.25 36.75 25.5858 36.75 26C36.75 26.4142 36.4142 26.75 36 26.75H34.9653C34.6102 30.5697 31.5697 33.6102 27.75 33.9653V35C27.75 35.4142 27.4142 35.75 27 35.75C26.5858 35.75 26.25 35.4142 26.25 35V33.9653C22.4303 33.6102 19.3898 30.5697 19.0347 26.75H18C17.5858 26.75 17.25 26.4142 17.25 26C17.25 25.5858 17.5858 25.25 18 25.25H19.0347C19.3898 21.4303 22.4303 18.3898 26.25 18.0347V17C26.25 16.5858 26.5858 16.25 27 16.25ZM27 32.5C30.5899 32.5 33.5 29.5899 33.5 26C33.5 22.4101 30.5899 19.5 27 19.5C23.4101 19.5 20.5 22.4101 20.5 26C20.5 29.5899 23.4101 32.5 27 32.5Z" fill="#FC6B21"/>
<path fill-rule="evenodd" clip-rule="evenodd" d="M27 27.5C27.8284 27.5 28.5 26.8284 28.5 26C28.5 25.1716 27.8284 24.5 27 24.5C26.1716 24.5 25.5 25.1716 25.5 26C25.5 26.8284 26.1716 27.5 27 27.5ZM27 29C28.6569 29 30 27.6569 30 26C30 24.3431 28.6569 23 27 23C25.3431 23 24 24.3431 24 26C24 27.6569 25.3431 29 27 29Z" fill="#FC6B21"/>
</svg>
