<svg width="53" height="53" viewBox="0 0 53 53" fill="none" xmlns="http://www.w3.org/2000/svg">
<circle cx="26.5" cy="26.5" r="26.5" fill="#ECEAFE"/>
<path fill-rule="evenodd" clip-rule="evenodd" d="M22 17.25C22.4142 17.25 22.75 17.5858 22.75 18V19H31.25V18C31.25 17.5858 31.5858 17.25 32 17.25C32.4142 17.25 32.75 17.5858 32.75 18V19H34C35.6569 19 37 20.3431 37 22V34C37 35.6569 35.6569 37 34 37H20C18.3431 37 17 35.6569 17 34V22C17 20.3431 18.3431 19 20 19H21.25V18C21.25 17.5858 21.5858 17.25 22 17.25ZM31.25 20.5V22C31.25 22.4142 31.5858 22.75 32 22.75C32.4142 22.75 32.75 22.4142 32.75 22V20.5H34C34.8284 20.5 35.5 21.1716 35.5 22V25.25H18.5V22C18.5 21.1716 19.1716 20.5 20 20.5H21.25V22C21.25 22.4142 21.5858 22.75 22 22.75C22.4142 22.75 22.75 22.4142 22.75 22V20.5H31.25ZM18.5 26.75V34C18.5 34.8284 19.1716 35.5 20 35.5H34C34.8284 35.5 35.5 34.8284 35.5 34V26.75H18.5Z" fill="#5531FB"/>
</svg>
