<svg xmlns="http://www.w3.org/2000/svg" width="20" height="25" fill="none">
	<path fill="#D7D9E6" d="M2.7569 17.0964h14.4003v6.163H2.7569z" />
	<path fill="#000"
		d="M13.3136 9.003a.562.562 0 0 0-.5621.5621v10.623a.5621.5621 0 0 0 1.1241 0V9.5651a.562.562 0 0 0-.562-.562ZM6.6819 9.003a.562.562 0 0 0-.562.5621v10.623a.5621.5621 0 0 0 1.124 0V9.5651a.562.562 0 0 0-.562-.562Z" />
	<path fill="#000"
		d="M1.848 7.4527v13.8479c0 .8185.3002 1.5872.8245 2.1387a2.768 2.768 0 0 0 2.0082.8683h10.6344a2.767 2.767 0 0 0 2.0082-.8683c.5243-.5515.8245-1.3202.8245-2.1387V7.4526c1.0422-.2766 1.7175-1.2835 1.5781-2.353-.1396-1.0691-1.0505-1.869-2.129-1.8692h-2.8777v-.7026A2.208 2.208 0 0 0 12.4934.3077h-4.991a2.2082 2.2082 0 0 0-1.5772.6446 2.2083 2.2083 0 0 0-.6486 1.5755v.7026H2.399c-1.0784.0002-1.9894.8-2.129 1.8693C.1305 6.169.8059 7.176 1.848 7.4527Zm13.4671 15.7308H4.6807c-.961 0-1.7085-.8255-1.7085-1.8829V7.5021h14.0514v13.7985c0 1.0574-.7475 1.8829-1.7085 1.8829ZM6.4007 2.5278a1.0825 1.0825 0 0 1 1.1017-1.096h4.991a1.0827 1.0827 0 0 1 1.1017 1.096v.7026H6.4007v-.7026ZM2.399 4.3545h15.198c.5588 0 1.0117.453 1.0117 1.0117 0 .5588-.4529 1.0117-1.0117 1.0117H2.3989c-.5588 0-1.0117-.453-1.0117-1.0117s.453-1.0117 1.0117-1.0117Z" />
	<path fill="#000"
		d="M9.9978 9.003a.562.562 0 0 0-.5621.5621v10.623a.5621.5621 0 0 0 1.1241 0V9.5651a.562.562 0 0 0-.562-.562Z" />
</svg>