<svg width="241" height="98" viewBox="0 0 241 98" fill="none" xmlns="http://www.w3.org/2000/svg">
<path d="M17.864 86.192C17.216 86.192 16.64 86.004 16.136 85.628C15.64 85.244 15.256 84.728 14.984 84.08C14.72 83.424 14.588 82.696 14.588 81.896C14.588 81.096 14.72 80.372 14.984 79.724C15.256 79.068 15.64 78.552 16.136 78.176C16.632 77.792 17.208 77.6 17.864 77.6C18.52 77.6 19.096 77.792 19.592 78.176C20.088 78.552 20.468 79.068 20.732 79.724C21.004 80.372 21.14 81.096 21.14 81.896C21.14 82.696 21.004 83.424 20.732 84.08C20.468 84.728 20.084 85.244 19.58 85.628C19.084 86.004 18.512 86.192 17.864 86.192ZM17.864 85.22C18.32 85.22 18.716 85.076 19.052 84.788C19.388 84.492 19.648 84.092 19.832 83.588C20.016 83.084 20.108 82.52 20.108 81.896C20.108 81.272 20.016 80.708 19.832 80.204C19.648 79.7 19.388 79.304 19.052 79.016C18.716 78.72 18.32 78.572 17.864 78.572C17.408 78.572 17.012 78.72 16.676 79.016C16.34 79.304 16.08 79.7 15.896 80.204C15.712 80.708 15.62 81.272 15.62 81.896C15.62 82.52 15.712 83.084 15.896 83.588C16.08 84.092 16.34 84.492 16.676 84.788C17.012 85.076 17.408 85.22 17.864 85.22Z" fill="#AEAEAE"/>
<path d="M10.288 64.192C9.904 64.192 9.524 64.112 9.148 63.952C8.772 63.784 8.44 63.536 8.152 63.208C7.864 62.872 7.66 62.46 7.54 61.972L8.44 61.612C8.56 62.1 8.78 62.492 9.1 62.788C9.428 63.076 9.816 63.22 10.264 63.22C10.8 63.22 11.236 63.056 11.572 62.728C11.908 62.4 12.076 61.972 12.076 61.444C12.076 60.924 11.908 60.496 11.572 60.16C11.244 59.816 10.816 59.644 10.288 59.644C10 59.644 9.728 59.712 9.472 59.848C9.216 59.976 9.008 60.156 8.848 60.388L7.804 59.932L8.344 55.792H12.592V56.764H9.184L8.86 59.248L8.908 59.26C9.332 58.9 9.852 58.72 10.468 58.72C10.94 58.72 11.376 58.836 11.776 59.068C12.184 59.3 12.508 59.624 12.748 60.04C12.988 60.456 13.108 60.92 13.108 61.432C13.108 61.944 12.984 62.412 12.736 62.836C12.496 63.252 12.16 63.584 11.728 63.832C11.296 64.072 10.816 64.192 10.288 64.192ZM14.5177 55.408H15.5377V60.808L18.4177 57.88H19.7137V57.928L17.3137 60.352L19.7737 63.952V64H18.5617L16.5937 61.06L15.5377 62.116V64H14.5177V55.408Z" fill="#AEAEAE"/>
<path d="M2.508 37.22L1.068 38.252L0.54 37.472L2.88 35.792H3.528V44H2.508V37.22ZM8.42259 44.192C7.77459 44.192 7.19859 44.004 6.69459 43.628C6.19859 43.244 5.81459 42.728 5.54259 42.08C5.27859 41.424 5.14659 40.696 5.14659 39.896C5.14659 39.096 5.27859 38.372 5.54259 37.724C5.81459 37.068 6.19859 36.552 6.69459 36.176C7.19059 35.792 7.76659 35.6 8.42259 35.6C9.07859 35.6 9.65459 35.792 10.1506 36.176C10.6466 36.552 11.0266 37.068 11.2906 37.724C11.5626 38.372 11.6986 39.096 11.6986 39.896C11.6986 40.696 11.5626 41.424 11.2906 42.08C11.0266 42.728 10.6426 43.244 10.1386 43.628C9.64259 44.004 9.07059 44.192 8.42259 44.192ZM8.42259 43.22C8.87859 43.22 9.27459 43.076 9.61059 42.788C9.94659 42.492 10.2066 42.092 10.3906 41.588C10.5746 41.084 10.6666 40.52 10.6666 39.896C10.6666 39.272 10.5746 38.708 10.3906 38.204C10.2066 37.7 9.94659 37.304 9.61059 37.016C9.27459 36.72 8.87859 36.572 8.42259 36.572C7.96659 36.572 7.57059 36.72 7.23459 37.016C6.89859 37.304 6.63859 37.7 6.45459 38.204C6.27059 38.708 6.17859 39.272 6.17859 39.896C6.17859 40.52 6.27059 41.084 6.45459 41.588C6.63859 42.092 6.89859 42.492 7.23459 42.788C7.57059 43.076 7.96659 43.22 8.42259 43.22ZM13.049 35.408H14.069V40.808L16.949 37.88H18.245V37.928L15.845 40.352L18.305 43.952V44H17.093L15.125 41.06L14.069 42.116V44H13.049V35.408Z" fill="#AEAEAE"/>
<path d="M2.508 15.22L1.068 16.252L0.54 15.472L2.88 13.792H3.528V22H2.508V15.22ZM7.96378 22.192C7.57978 22.192 7.19978 22.112 6.82378 21.952C6.44778 21.784 6.11578 21.536 5.82778 21.208C5.53978 20.872 5.33578 20.46 5.21578 19.972L6.11578 19.612C6.23578 20.1 6.45578 20.492 6.77578 20.788C7.10378 21.076 7.49178 21.22 7.93978 21.22C8.47578 21.22 8.91178 21.056 9.24778 20.728C9.58378 20.4 9.75178 19.972 9.75178 19.444C9.75178 18.924 9.58378 18.496 9.24778 18.16C8.91978 17.816 8.49178 17.644 7.96378 17.644C7.67578 17.644 7.40378 17.712 7.14778 17.848C6.89178 17.976 6.68378 18.156 6.52378 18.388L5.47978 17.932L6.01978 13.792H10.2678V14.764H6.85978L6.53578 17.248L6.58378 17.26C7.00778 16.9 7.52778 16.72 8.14378 16.72C8.61578 16.72 9.05178 16.836 9.45178 17.068C9.85978 17.3 10.1838 17.624 10.4238 18.04C10.6638 18.456 10.7838 18.92 10.7838 19.432C10.7838 19.944 10.6598 20.412 10.4118 20.836C10.1718 21.252 9.83578 21.584 9.40378 21.832C8.97178 22.072 8.49178 22.192 7.96378 22.192ZM12.1935 13.408H13.2135V18.808L16.0935 15.88H17.3895V15.928L14.9895 18.352L17.4495 21.952V22H16.2375L14.2695 19.06L13.2135 20.116V22H12.1935V13.408Z" fill="#AEAEAE"/>
<path d="M35.78 94.69L37.5 92.28L37.48 92.26C37.2467 92.42 36.95 92.5 36.59 92.5C36.2433 92.5 35.9033 92.4033 35.57 92.21C35.2367 92.0167 34.9667 91.7533 34.76 91.42C34.5533 91.08 34.45 90.7033 34.45 90.29C34.45 89.89 34.5533 89.5167 34.76 89.17C34.9733 88.8167 35.2567 88.5333 35.61 88.32C35.97 88.1067 36.36 88 36.78 88C37.2333 88 37.6367 88.11 37.99 88.33C38.35 88.55 38.6267 88.8367 38.82 89.19C39.02 89.5367 39.12 89.9033 39.12 90.29C39.12 90.6567 39.0433 91.01 38.89 91.35C38.7433 91.6833 38.53 92.0567 38.25 92.47L36.46 95.16L35.78 94.69ZM36.78 91.74C37.0467 91.74 37.2933 91.6767 37.52 91.55C37.7533 91.4167 37.9367 91.24 38.07 91.02C38.2033 90.7933 38.27 90.5467 38.27 90.28C38.27 90.0067 38.2033 89.76 38.07 89.54C37.9367 89.3133 37.7533 89.1367 37.52 89.01C37.2933 88.8767 37.0467 88.81 36.78 88.81C36.5133 88.81 36.2667 88.8767 36.04 89.01C35.8133 89.1367 35.6333 89.3133 35.5 89.54C35.3667 89.76 35.3 90.0067 35.3 90.28C35.3 90.5467 35.3667 90.7933 35.5 91.02C35.6333 91.24 35.8133 91.4167 36.04 91.55C36.2667 91.6767 36.5133 91.74 36.78 91.74Z" fill="#AEAEAE"/>
<path d="M55.09 89.35L53.89 90.21L53.45 89.56L55.4 88.16H55.94V95H55.09V89.35ZM58.8888 89.35L57.6888 90.21L57.2488 89.56L59.1988 88.16H59.7388V95H58.8888V89.35Z" fill="#AEAEAE"/>
<path d="M77.09 89.35L75.89 90.21L75.45 89.56L77.4 88.16H77.94V95H77.09V89.35ZM81.4088 95.16C81.1222 95.16 80.8288 95.1 80.5288 94.98C80.2288 94.86 79.9555 94.6733 79.7088 94.42C79.4688 94.16 79.2955 93.8367 79.1888 93.45L79.9588 93.13C80.0655 93.5167 80.2455 93.8167 80.4988 94.03C80.7588 94.2433 81.0622 94.35 81.4088 94.35C81.6622 94.35 81.8988 94.2967 82.1188 94.19C82.3388 94.0767 82.5122 93.9233 82.6388 93.73C82.7722 93.53 82.8388 93.31 82.8388 93.07C82.8388 92.8367 82.7722 92.6233 82.6388 92.43C82.5122 92.2367 82.3355 92.0867 82.1088 91.98C81.8888 91.8667 81.6455 91.81 81.3788 91.81H80.7888V91.02H81.3188C81.6855 91.02 81.9922 90.9167 82.2388 90.71C82.4855 90.4967 82.6088 90.2167 82.6088 89.87C82.6088 89.55 82.4888 89.2933 82.2488 89.1C82.0088 88.9067 81.7122 88.81 81.3588 88.81C81.0122 88.81 80.7388 88.9 80.5388 89.08C80.3455 89.26 80.2055 89.48 80.1188 89.74L79.3388 89.41C79.4588 89.05 79.6888 88.7267 80.0288 88.44C80.3755 88.1467 80.8188 88 81.3588 88C81.7588 88 82.1188 88.08 82.4388 88.24C82.7588 88.4 83.0088 88.6233 83.1888 88.91C83.3755 89.1967 83.4688 89.5167 83.4688 89.87C83.4688 90.2233 83.3788 90.5233 83.1988 90.77C83.0188 91.0167 82.7955 91.21 82.5288 91.35V91.39C82.8688 91.53 83.1488 91.7467 83.3688 92.04C83.5888 92.3267 83.6988 92.6667 83.6988 93.06C83.6988 93.46 83.5955 93.82 83.3888 94.14C83.1888 94.46 82.9122 94.71 82.5588 94.89C82.2122 95.07 81.8288 95.16 81.4088 95.16Z" fill="#AEAEAE"/>
<path d="M99.09 89.35L97.89 90.21L97.45 89.56L99.4 88.16H99.94V95H99.09V89.35ZM103.636 95.16C103.316 95.16 103 95.0933 102.686 94.96C102.373 94.82 102.096 94.6133 101.856 94.34C101.616 94.06 101.446 93.7167 101.346 93.31L102.096 93.01C102.196 93.4167 102.38 93.7433 102.646 93.99C102.92 94.23 103.243 94.35 103.616 94.35C104.063 94.35 104.426 94.2133 104.706 93.94C104.986 93.6667 105.126 93.31 105.126 92.87C105.126 92.4367 104.986 92.08 104.706 91.8C104.433 91.5133 104.076 91.37 103.636 91.37C103.396 91.37 103.17 91.4267 102.956 91.54C102.743 91.6467 102.57 91.7967 102.436 91.99L101.566 91.61L102.016 88.16H105.556V88.97H102.716L102.446 91.04L102.486 91.05C102.84 90.75 103.273 90.6 103.786 90.6C104.18 90.6 104.543 90.6967 104.876 90.89C105.216 91.0833 105.486 91.3533 105.686 91.7C105.886 92.0467 105.986 92.4333 105.986 92.86C105.986 93.2867 105.883 93.6767 105.676 94.03C105.476 94.3767 105.196 94.6533 104.836 94.86C104.476 95.06 104.076 95.16 103.636 95.16Z" fill="#AEAEAE"/>
<path d="M121.09 89.35L119.89 90.21L119.45 89.56L121.4 88.16H121.94V95H121.09V89.35ZM123.569 94.77L126.759 88.97H123.249V88.16H127.639V89.03L124.319 95.16L123.569 94.77Z" fill="#AEAEAE"/>
<path d="M144.09 89.35L142.89 90.21L142.45 89.56L144.4 88.16H144.94V95H144.09V89.35ZM147.579 94.69L149.299 92.28L149.279 92.26C149.045 92.42 148.749 92.5 148.389 92.5C148.042 92.5 147.702 92.4033 147.369 92.21C147.035 92.0167 146.765 91.7533 146.559 91.42C146.352 91.08 146.249 90.7033 146.249 90.29C146.249 89.89 146.352 89.5167 146.559 89.17C146.772 88.8167 147.055 88.5333 147.409 88.32C147.769 88.1067 148.159 88 148.579 88C149.032 88 149.435 88.11 149.789 88.33C150.149 88.55 150.425 88.8367 150.619 89.19C150.819 89.5367 150.919 89.9033 150.919 90.29C150.919 90.6567 150.842 91.01 150.689 91.35C150.542 91.6833 150.329 92.0567 150.049 92.47L148.259 95.16L147.579 94.69ZM148.579 91.74C148.845 91.74 149.092 91.6767 149.319 91.55C149.552 91.4167 149.735 91.24 149.869 91.02C150.002 90.7933 150.069 90.5467 150.069 90.28C150.069 90.0067 150.002 89.76 149.869 89.54C149.735 89.3133 149.552 89.1367 149.319 89.01C149.092 88.8767 148.845 88.81 148.579 88.81C148.312 88.81 148.065 88.8767 147.839 89.01C147.612 89.1367 147.432 89.3133 147.299 89.54C147.165 89.76 147.099 90.0067 147.099 90.28C147.099 90.5467 147.165 90.7933 147.299 91.02C147.432 91.24 147.612 91.4167 147.839 91.55C148.065 91.6767 148.312 91.74 148.579 91.74Z" fill="#AEAEAE"/>
<path d="M164.45 94.15C164.657 93.9433 165.067 93.53 165.68 92.91C166.293 92.2833 166.72 91.84 166.96 91.58C167.3 91.2133 167.53 90.9267 167.65 90.72C167.77 90.5133 167.83 90.2633 167.83 89.97C167.83 89.77 167.777 89.5833 167.67 89.41C167.57 89.23 167.42 89.0867 167.22 88.98C167.027 88.8667 166.793 88.81 166.52 88.81C166.16 88.81 165.87 88.9167 165.65 89.13C165.437 89.3367 165.297 89.5633 165.23 89.81L164.45 89.5C164.517 89.2867 164.637 89.0667 164.81 88.84C164.983 88.6067 165.217 88.41 165.51 88.25C165.803 88.0833 166.15 88 166.55 88C166.97 88 167.34 88.09 167.66 88.27C167.987 88.45 168.24 88.69 168.42 88.99C168.6 89.29 168.69 89.6133 168.69 89.96C168.69 90.66 168.323 91.3833 167.59 92.13L165.54 94.19H168.77V95H164.45V94.15ZM171.246 89.35L170.046 90.21L169.606 89.56L171.556 88.16H172.096V95H171.246V89.35Z" fill="#AEAEAE"/>
<path d="M186.45 94.15C186.657 93.9433 187.067 93.53 187.68 92.91C188.293 92.2833 188.72 91.84 188.96 91.58C189.3 91.2133 189.53 90.9267 189.65 90.72C189.77 90.5133 189.83 90.2633 189.83 89.97C189.83 89.77 189.777 89.5833 189.67 89.41C189.57 89.23 189.42 89.0867 189.22 88.98C189.027 88.8667 188.793 88.81 188.52 88.81C188.16 88.81 187.87 88.9167 187.65 89.13C187.437 89.3367 187.297 89.5633 187.23 89.81L186.45 89.5C186.517 89.2867 186.637 89.0667 186.81 88.84C186.983 88.6067 187.217 88.41 187.51 88.25C187.803 88.0833 188.15 88 188.55 88C188.97 88 189.34 88.09 189.66 88.27C189.987 88.45 190.24 88.69 190.42 88.99C190.6 89.29 190.69 89.6133 190.69 89.96C190.69 90.66 190.323 91.3833 189.59 92.13L187.54 94.19H190.77V95H186.45V94.15ZM193.864 95.16C193.577 95.16 193.284 95.1 192.984 94.98C192.684 94.86 192.411 94.6733 192.164 94.42C191.924 94.16 191.751 93.8367 191.644 93.45L192.414 93.13C192.521 93.5167 192.701 93.8167 192.954 94.03C193.214 94.2433 193.517 94.35 193.864 94.35C194.117 94.35 194.354 94.2967 194.574 94.19C194.794 94.0767 194.967 93.9233 195.094 93.73C195.227 93.53 195.294 93.31 195.294 93.07C195.294 92.8367 195.227 92.6233 195.094 92.43C194.967 92.2367 194.791 92.0867 194.564 91.98C194.344 91.8667 194.101 91.81 193.834 91.81H193.244V91.02H193.774C194.141 91.02 194.447 90.9167 194.694 90.71C194.941 90.4967 195.064 90.2167 195.064 89.87C195.064 89.55 194.944 89.2933 194.704 89.1C194.464 88.9067 194.167 88.81 193.814 88.81C193.467 88.81 193.194 88.9 192.994 89.08C192.801 89.26 192.661 89.48 192.574 89.74L191.794 89.41C191.914 89.05 192.144 88.7267 192.484 88.44C192.831 88.1467 193.274 88 193.814 88C194.214 88 194.574 88.08 194.894 88.24C195.214 88.4 195.464 88.6233 195.644 88.91C195.831 89.1967 195.924 89.5167 195.924 89.87C195.924 90.2233 195.834 90.5233 195.654 90.77C195.474 91.0167 195.251 91.21 194.984 91.35V91.39C195.324 91.53 195.604 91.7467 195.824 92.04C196.044 92.3267 196.154 92.6667 196.154 93.06C196.154 93.46 196.051 93.82 195.844 94.14C195.644 94.46 195.367 94.71 195.014 94.89C194.667 95.07 194.284 95.16 193.864 95.16Z" fill="#AEAEAE"/>
<path d="M208.45 94.15C208.657 93.9433 209.067 93.53 209.68 92.91C210.293 92.2833 210.72 91.84 210.96 91.58C211.3 91.2133 211.53 90.9267 211.65 90.72C211.77 90.5133 211.83 90.2633 211.83 89.97C211.83 89.77 211.777 89.5833 211.67 89.41C211.57 89.23 211.42 89.0867 211.22 88.98C211.027 88.8667 210.793 88.81 210.52 88.81C210.16 88.81 209.87 88.9167 209.65 89.13C209.437 89.3367 209.297 89.5633 209.23 89.81L208.45 89.5C208.517 89.2867 208.637 89.0667 208.81 88.84C208.983 88.6067 209.217 88.41 209.51 88.25C209.803 88.0833 210.15 88 210.55 88C210.97 88 211.34 88.09 211.66 88.27C211.987 88.45 212.24 88.69 212.42 88.99C212.6 89.29 212.69 89.6133 212.69 89.96C212.69 90.66 212.323 91.3833 211.59 92.13L209.54 94.19H212.77V95H208.45V94.15ZM215.994 95.16C215.674 95.16 215.357 95.0933 215.044 94.96C214.731 94.82 214.454 94.6133 214.214 94.34C213.974 94.06 213.804 93.7167 213.704 93.31L214.454 93.01C214.554 93.4167 214.737 93.7433 215.004 93.99C215.277 94.23 215.601 94.35 215.974 94.35C216.421 94.35 216.784 94.2133 217.064 93.94C217.344 93.6667 217.484 93.31 217.484 92.87C217.484 92.4367 217.344 92.08 217.064 91.8C216.791 91.5133 216.434 91.37 215.994 91.37C215.754 91.37 215.527 91.4267 215.314 91.54C215.101 91.6467 214.927 91.7967 214.794 91.99L213.924 91.61L214.374 88.16H217.914V88.97H215.074L214.804 91.04L214.844 91.05C215.197 90.75 215.631 90.6 216.144 90.6C216.537 90.6 216.901 90.6967 217.234 90.89C217.574 91.0833 217.844 91.3533 218.044 91.7C218.244 92.0467 218.344 92.4333 218.344 92.86C218.344 93.2867 218.241 93.6767 218.034 94.03C217.834 94.3767 217.554 94.6533 217.194 94.86C216.834 95.06 216.434 95.16 215.994 95.16Z" fill="#AEAEAE"/>
<path d="M230.45 94.15C230.657 93.9433 231.067 93.53 231.68 92.91C232.293 92.2833 232.72 91.84 232.96 91.58C233.3 91.2133 233.53 90.9267 233.65 90.72C233.77 90.5133 233.83 90.2633 233.83 89.97C233.83 89.77 233.777 89.5833 233.67 89.41C233.57 89.23 233.42 89.0867 233.22 88.98C233.027 88.8667 232.793 88.81 232.52 88.81C232.16 88.81 231.87 88.9167 231.65 89.13C231.437 89.3367 231.297 89.5633 231.23 89.81L230.45 89.5C230.517 89.2867 230.637 89.0667 230.81 88.84C230.983 88.6067 231.217 88.41 231.51 88.25C231.803 88.0833 232.15 88 232.55 88C232.97 88 233.34 88.09 233.66 88.27C233.987 88.45 234.24 88.69 234.42 88.99C234.6 89.29 234.69 89.6133 234.69 89.96C234.69 90.66 234.323 91.3833 233.59 92.13L231.54 94.19H234.77V95H230.45V94.15ZM236.024 94.77L239.214 88.97H235.704V88.16H240.094V89.03L236.774 95.16L236.024 94.77Z" fill="#AEAEAE"/>
<path fill-rule="evenodd" clip-rule="evenodd" d="M27 81H240V82H27V81Z" fill="#F0F0F0"/>
<path fill-rule="evenodd" clip-rule="evenodd" d="M27 60H240V61H27V60Z" fill="#F0F0F0"/>
<path fill-rule="evenodd" clip-rule="evenodd" d="M27 39H240V40H27V39Z" fill="#F0F0F0"/>
<path fill-rule="evenodd" clip-rule="evenodd" d="M27 18H240V19H27V18Z" fill="#F0F0F0"/>
<path fill-rule="evenodd" clip-rule="evenodd" d="M44 68C44 65.7909 45.7909 64 48 64C50.2091 64 52 65.7909 52 68V74C52 76.2091 50.2091 78 48 78C45.7909 78 44 76.2091 44 74V68Z" fill="url(#paint0_linear_1844_17)"/>
<path fill-rule="evenodd" clip-rule="evenodd" d="M33 66C33 63.7909 34.7909 62 37 62C39.2091 62 41 63.7909 41 66V74C41 76.2091 39.2091 78 37 78C34.7909 78 33 76.2091 33 74V66Z" fill="url(#paint1_linear_1844_17)"/>
<path fill-rule="evenodd" clip-rule="evenodd" d="M55 65C55 62.7909 56.7909 61 59 61C61.2091 61 63 62.7909 63 65V74C63 76.2091 61.2091 78 59 78C56.7909 78 55 76.2091 55 74V65Z" fill="url(#paint2_linear_1844_17)"/>
<path fill-rule="evenodd" clip-rule="evenodd" d="M110 73C110 70.7909 111.791 69 114 69C116.209 69 118 70.7909 118 73V74C118 76.2091 116.209 78 114 78C111.791 78 110 76.2091 110 74V73Z" fill="url(#paint3_linear_1844_17)"/>
<path fill-rule="evenodd" clip-rule="evenodd" d="M66 59C66 56.7909 67.7909 55 70 55C72.2091 55 74 56.7909 74 59V74C74 76.2091 72.2091 78 70 78C67.7909 78 66 76.2091 66 74V59Z" fill="url(#paint4_linear_1844_17)"/>
<path fill-rule="evenodd" clip-rule="evenodd" d="M77 62C77 59.7909 78.7909 58 81 58C83.2091 58 85 59.7909 85 62V74C85 76.2091 83.2091 78 81 78C78.7909 78 77 76.2091 77 74V62Z" fill="url(#paint5_linear_1844_17)"/>
<path fill-rule="evenodd" clip-rule="evenodd" d="M88 61C88 58.7909 89.7909 57 92 57C94.2091 57 96 58.7909 96 61V74C96 76.2091 94.2091 78 92 78C89.7909 78 88 76.2091 88 74V61Z" fill="url(#paint6_linear_1844_17)"/>
<path fill-rule="evenodd" clip-rule="evenodd" d="M99 65C99 62.7909 100.791 61 103 61C105.209 61 107 62.7909 107 65V74C107 76.2091 105.209 78 103 78C100.791 78 99 76.2091 99 74V65Z" fill="url(#paint7_linear_1844_17)"/>
<path fill-rule="evenodd" clip-rule="evenodd" d="M220 65C220 62.7909 221.791 61 224 61C226.209 61 228 62.7909 228 65V74C228 76.2091 226.209 78 224 78C221.791 78 220 76.2091 220 74V65Z" fill="url(#paint8_linear_1844_17)"/>
<path fill-rule="evenodd" clip-rule="evenodd" d="M231 60C231 57.7909 232.791 56 235 56C237.209 56 239 57.7909 239 60V74C239 76.2091 237.209 78 235 78C232.791 78 231 76.2091 231 74V60Z" fill="url(#paint9_linear_1844_17)"/>
<path fill-rule="evenodd" clip-rule="evenodd" d="M121 55C121 52.7909 122.791 51 125 51C127.209 51 129 52.7909 129 55V74C129 76.2091 127.209 78 125 78C122.791 78 121 76.2091 121 74V55Z" fill="url(#paint10_linear_1844_17)"/>
<path fill-rule="evenodd" clip-rule="evenodd" d="M132 53C132 50.7909 133.791 49 136 49C138.209 49 140 50.7909 140 53V74C140 76.2091 138.209 78 136 78C133.791 78 132 76.2091 132 74V53Z" fill="url(#paint11_linear_1844_17)"/>
<path fill-rule="evenodd" clip-rule="evenodd" d="M209 51C209 48.7909 210.791 47 213 47C215.209 47 217 48.7909 217 51V74C217 76.2091 215.209 78 213 78C210.791 78 209 76.2091 209 74V51Z" fill="url(#paint12_linear_1844_17)"/>
<path fill-rule="evenodd" clip-rule="evenodd" d="M165 47C165 44.7909 166.791 43 169 43C171.209 43 173 44.7909 173 47V74C173 76.2091 171.209 78 169 78C166.791 78 165 76.2091 165 74V47Z" fill="url(#paint13_linear_1844_17)"/>
<path fill-rule="evenodd" clip-rule="evenodd" d="M154 40C154 37.7909 155.791 36 158 36C160.209 36 162 37.7909 162 40V74C162 76.2091 160.209 78 158 78C155.791 78 154 76.2091 154 74V40Z" fill="url(#paint14_linear_1844_17)"/>
<path fill-rule="evenodd" clip-rule="evenodd" d="M176 33C176 30.7909 177.791 29 180 29C182.209 29 184 30.7909 184 33V74C184 76.2091 182.209 78 180 78C177.791 78 176 76.2091 176 74V33Z" fill="url(#paint15_linear_1844_17)"/>
<path fill-rule="evenodd" clip-rule="evenodd" d="M198 38C198 35.7909 199.791 34 202 34C204.209 34 206 35.7909 206 38V74C206 76.2091 204.209 78 202 78C199.791 78 198 76.2091 198 74V38Z" fill="url(#paint16_linear_1844_17)"/>
<path fill-rule="evenodd" clip-rule="evenodd" d="M187 27C187 24.7909 188.791 23 191 23C193.209 23 195 24.7909 195 27V74C195 76.2091 193.209 78 191 78C188.791 78 187 76.2091 187 74V27Z" fill="url(#paint17_linear_1844_17)"/>
<path fill-rule="evenodd" clip-rule="evenodd" d="M143 59C143 56.7909 144.791 55 147 55C149.209 55 151 56.7909 151 59V74C151 76.2091 149.209 78 147 78C144.791 78 143 76.2091 143 74V59Z" fill="url(#paint18_linear_1844_17)"/>
<path d="M130.757 0.408H133.841C134.273 0.408 134.677 0.508 135.053 0.707999C135.437 0.908 135.741 1.184 135.965 1.536C136.189 1.888 136.301 2.284 136.301 2.724C136.301 3.14 136.193 3.504 135.977 3.816C135.769 4.128 135.485 4.368 135.125 4.536V4.584C135.557 4.728 135.909 4.976 136.181 5.328C136.453 5.68 136.589 6.092 136.589 6.564C136.589 7.028 136.469 7.448 136.229 7.824C135.997 8.192 135.681 8.48 135.281 8.688C134.889 8.896 134.465 9 134.009 9H130.757V0.408ZM133.841 4.128C134.129 4.128 134.381 4.06 134.597 3.924C134.821 3.788 134.993 3.616 135.113 3.408C135.233 3.192 135.293 2.972 135.293 2.748C135.293 2.532 135.233 2.32 135.113 2.112C135.001 1.896 134.837 1.72 134.621 1.584C134.413 1.448 134.169 1.38 133.889 1.38H131.765V4.128H133.841ZM134.069 8.028C134.357 8.028 134.613 7.956 134.837 7.812C135.069 7.668 135.245 7.484 135.365 7.26C135.493 7.028 135.557 6.792 135.557 6.552C135.557 6.312 135.493 6.08 135.365 5.856C135.237 5.624 135.057 5.44 134.825 5.304C134.593 5.16 134.325 5.088 134.021 5.088H131.765V8.028H134.069ZM138.034 0.408H143.002V1.38H139.042V4.224H142.618V5.184H139.042V8.028H143.002V9H138.034V0.408ZM146.408 1.38H143.996V0.408H149.828V1.38H147.428V9H146.408V1.38ZM150.356 0.408H151.484L153.044 6.72L153.188 7.308H153.236L153.416 6.72L155.336 0.408H156.392L158.228 6.72L158.408 7.308H158.456L160.148 0.408H161.276L158.96 9H157.904L156.08 2.784L155.888 2.112H155.84L155.636 2.784L153.74 9H152.684L150.356 0.408ZM162.444 0.408H167.412V1.38H163.452V4.224H167.028V5.184H163.452V8.028H167.412V9H162.444V0.408ZM169.054 0.408H174.022V1.38H170.062V4.224H173.638V5.184H170.062V8.028H174.022V9H169.054V0.408ZM175.663 0.408H176.911L181.219 7.248H181.267L181.219 5.592V0.408H182.239V9H181.183L176.671 1.836H176.623L176.671 3.492V9H175.663V0.408ZM188.985 9.192C188.313 9.192 187.697 8.988 187.137 8.58C186.577 8.172 186.193 7.6 185.985 6.864L186.957 6.468C187.093 6.98 187.345 7.4 187.713 7.728C188.081 8.056 188.513 8.22 189.009 8.22C189.505 8.22 189.925 8.088 190.269 7.824C190.613 7.552 190.785 7.184 190.785 6.72C190.785 6.32 190.637 5.992 190.341 5.736C190.053 5.472 189.577 5.228 188.913 5.004L188.373 4.812C187.765 4.596 187.269 4.312 186.885 3.96C186.501 3.608 186.309 3.12 186.309 2.496C186.309 2.088 186.421 1.712 186.645 1.368C186.869 1.016 187.181 0.736 187.581 0.528C187.981 0.319999 188.429 0.215999 188.925 0.215999C189.421 0.215999 189.853 0.307999 190.221 0.491999C190.589 0.675999 190.881 0.899999 191.097 1.164C191.321 1.428 191.477 1.688 191.565 1.944L190.605 2.352C190.525 2.056 190.341 1.788 190.053 1.548C189.773 1.308 189.401 1.188 188.937 1.188C188.497 1.188 188.121 1.312 187.809 1.56C187.497 1.808 187.341 2.12 187.341 2.496C187.341 2.832 187.473 3.108 187.737 3.324C188.001 3.532 188.401 3.728 188.937 3.912L189.501 4.104C190.229 4.368 190.797 4.7 191.205 5.1C191.613 5.492 191.817 6.028 191.817 6.708C191.817 7.26 191.673 7.724 191.385 8.1C191.105 8.476 190.749 8.752 190.317 8.928C189.885 9.104 189.441 9.192 188.985 9.192ZM193.312 0.408H198.28V1.38H194.32V4.224H197.896V5.184H194.32V8.028H198.28V9H193.312V0.408ZM199.921 0.408H202.813C203.293 0.408 203.737 0.516 204.145 0.732C204.553 0.947999 204.877 1.252 205.117 1.644C205.365 2.028 205.489 2.464 205.489 2.952C205.489 3.44 205.365 3.88 205.117 4.272C204.877 4.656 204.553 4.956 204.145 5.172C203.737 5.388 203.293 5.496 202.813 5.496H200.929V9H199.921V0.408ZM202.837 4.524C203.157 4.524 203.437 4.448 203.677 4.296C203.925 4.144 204.117 3.948 204.253 3.708C204.389 3.468 204.457 3.216 204.457 2.952C204.457 2.688 204.389 2.436 204.253 2.196C204.117 1.956 203.925 1.76 203.677 1.608C203.437 1.456 203.157 1.38 202.837 1.38H200.929V4.524H202.837ZM210.8 8.628L212.864 5.736L212.84 5.712C212.56 5.904 212.204 6 211.772 6C211.356 6 210.948 5.884 210.548 5.652C210.148 5.42 209.824 5.104 209.576 4.704C209.328 4.296 209.204 3.844 209.204 3.348C209.204 2.868 209.328 2.42 209.576 2.004C209.832 1.58 210.172 1.24 210.596 0.983999C211.028 0.727999 211.496 0.599999 212 0.599999C212.544 0.599999 213.028 0.731999 213.452 0.995999C213.884 1.26 214.216 1.604 214.448 2.028C214.688 2.444 214.808 2.884 214.808 3.348C214.808 3.788 214.716 4.212 214.532 4.62C214.356 5.02 214.1 5.468 213.764 5.964L211.616 9.192L210.8 8.628ZM212 5.088C212.32 5.088 212.616 5.012 212.888 4.86C213.168 4.7 213.388 4.488 213.548 4.224C213.708 3.952 213.788 3.656 213.788 3.336C213.788 3.008 213.708 2.712 213.548 2.448C213.388 2.176 213.168 1.964 212.888 1.812C212.616 1.652 212.32 1.572 212 1.572C211.68 1.572 211.384 1.652 211.112 1.812C210.84 1.964 210.624 2.176 210.464 2.448C210.304 2.712 210.224 3.008 210.224 3.336C210.224 3.656 210.304 3.952 210.464 4.224C210.624 4.488 210.84 4.7 211.112 4.86C211.384 5.012 211.68 5.088 212 5.088ZM222.681 6.168C222.497 6.168 222.289 6.132 222.057 6.06C221.833 5.98 221.553 5.868 221.217 5.724C220.921 5.596 220.681 5.504 220.497 5.448C220.321 5.384 220.165 5.352 220.029 5.352C219.845 5.352 219.693 5.42 219.573 5.556C219.453 5.684 219.385 5.836 219.369 6.012H218.577C218.577 5.7 218.645 5.424 218.781 5.184C218.917 4.944 219.093 4.76 219.309 4.632C219.533 4.504 219.765 4.44 220.005 4.44C220.205 4.44 220.417 4.48 220.641 4.56C220.865 4.632 221.153 4.74 221.505 4.884C221.793 5.012 222.025 5.108 222.201 5.172C222.377 5.228 222.533 5.256 222.669 5.256C222.853 5.256 223.001 5.192 223.113 5.064C223.233 4.928 223.301 4.772 223.317 4.596H224.121C224.121 4.908 224.049 5.184 223.905 5.424C223.769 5.664 223.589 5.848 223.365 5.976C223.149 6.104 222.921 6.168 222.681 6.168ZM227.884 7.98C228.132 7.732 228.624 7.236 229.36 6.492C230.096 5.74 230.608 5.208 230.896 4.896C231.304 4.456 231.58 4.112 231.724 3.864C231.868 3.616 231.94 3.316 231.94 2.964C231.94 2.724 231.876 2.5 231.748 2.292C231.628 2.076 231.448 1.904 231.208 1.776C230.976 1.64 230.696 1.572 230.368 1.572C229.936 1.572 229.588 1.7 229.324 1.956C229.068 2.204 228.9 2.476 228.82 2.772L227.884 2.4C227.964 2.144 228.108 1.88 228.316 1.608C228.524 1.328 228.804 1.092 229.156 0.9C229.508 0.7 229.924 0.599999 230.404 0.599999C230.908 0.599999 231.352 0.707999 231.736 0.924C232.128 1.14 232.432 1.428 232.648 1.788C232.864 2.148 232.972 2.536 232.972 2.952C232.972 3.792 232.532 4.66 231.652 5.556L229.192 8.028H233.068V9H227.884V7.98ZM234.572 8.724L238.4 1.764H234.188V0.792H239.456V1.836L235.472 9.192L234.572 8.724Z" fill="#AEAEAE"/>
<defs>
<linearGradient id="paint0_linear_1844_17" x1="44" y1="64" x2="44" y2="78" gradientUnits="userSpaceOnUse">
<stop stop-color="#623CE7"/>
<stop offset="1" stop-color="#9C3CE7"/>
</linearGradient>
<linearGradient id="paint1_linear_1844_17" x1="33" y1="62" x2="33" y2="78" gradientUnits="userSpaceOnUse">
<stop stop-color="#623CE7"/>
<stop offset="1" stop-color="#9C3CE7"/>
</linearGradient>
<linearGradient id="paint2_linear_1844_17" x1="55" y1="61" x2="55" y2="78" gradientUnits="userSpaceOnUse">
<stop stop-color="#623CE7"/>
<stop offset="1" stop-color="#9C3CE7"/>
</linearGradient>
<linearGradient id="paint3_linear_1844_17" x1="110" y1="69" x2="110" y2="78" gradientUnits="userSpaceOnUse">
<stop stop-color="#623CE7"/>
<stop offset="1" stop-color="#9C3CE7"/>
</linearGradient>
<linearGradient id="paint4_linear_1844_17" x1="66" y1="55" x2="66" y2="78" gradientUnits="userSpaceOnUse">
<stop stop-color="#623CE7"/>
<stop offset="1" stop-color="#9C3CE7"/>
</linearGradient>
<linearGradient id="paint5_linear_1844_17" x1="77" y1="58" x2="77" y2="78" gradientUnits="userSpaceOnUse">
<stop stop-color="#623CE7"/>
<stop offset="1" stop-color="#9C3CE7"/>
</linearGradient>
<linearGradient id="paint6_linear_1844_17" x1="88" y1="57" x2="88" y2="78" gradientUnits="userSpaceOnUse">
<stop stop-color="#623CE7"/>
<stop offset="1" stop-color="#9C3CE7"/>
</linearGradient>
<linearGradient id="paint7_linear_1844_17" x1="99" y1="61" x2="99" y2="78" gradientUnits="userSpaceOnUse">
<stop stop-color="#623CE7"/>
<stop offset="1" stop-color="#9C3CE7"/>
</linearGradient>
<linearGradient id="paint8_linear_1844_17" x1="220" y1="61" x2="220" y2="78" gradientUnits="userSpaceOnUse">
<stop stop-color="#623CE7"/>
<stop offset="1" stop-color="#9C3CE7"/>
</linearGradient>
<linearGradient id="paint9_linear_1844_17" x1="231" y1="56" x2="231" y2="78" gradientUnits="userSpaceOnUse">
<stop stop-color="#623CE7"/>
<stop offset="1" stop-color="#9C3CE7"/>
</linearGradient>
<linearGradient id="paint10_linear_1844_17" x1="121" y1="51" x2="121" y2="78" gradientUnits="userSpaceOnUse">
<stop stop-color="#623CE7"/>
<stop offset="1" stop-color="#9C3CE7"/>
</linearGradient>
<linearGradient id="paint11_linear_1844_17" x1="132" y1="49" x2="132" y2="78" gradientUnits="userSpaceOnUse">
<stop stop-color="#623CE7"/>
<stop offset="1" stop-color="#9C3CE7"/>
</linearGradient>
<linearGradient id="paint12_linear_1844_17" x1="209" y1="47" x2="209" y2="78" gradientUnits="userSpaceOnUse">
<stop stop-color="#623CE7"/>
<stop offset="1" stop-color="#9C3CE7"/>
</linearGradient>
<linearGradient id="paint13_linear_1844_17" x1="165" y1="43" x2="165" y2="78" gradientUnits="userSpaceOnUse">
<stop stop-color="#623CE7"/>
<stop offset="1" stop-color="#9C3CE7"/>
</linearGradient>
<linearGradient id="paint14_linear_1844_17" x1="154" y1="36" x2="154" y2="78" gradientUnits="userSpaceOnUse">
<stop stop-color="#623CE7"/>
<stop offset="1" stop-color="#9C3CE7"/>
</linearGradient>
<linearGradient id="paint15_linear_1844_17" x1="176" y1="29" x2="176" y2="78" gradientUnits="userSpaceOnUse">
<stop stop-color="#623CE7"/>
<stop offset="1" stop-color="#9C3CE7"/>
</linearGradient>
<linearGradient id="paint16_linear_1844_17" x1="198" y1="34" x2="198" y2="78" gradientUnits="userSpaceOnUse">
<stop stop-color="#623CE7"/>
<stop offset="1" stop-color="#9C3CE7"/>
</linearGradient>
<linearGradient id="paint17_linear_1844_17" x1="187" y1="23" x2="187" y2="78" gradientUnits="userSpaceOnUse">
<stop stop-color="#623CE7"/>
<stop offset="1" stop-color="#9C3CE7"/>
</linearGradient>
<linearGradient id="paint18_linear_1844_17" x1="143" y1="55" x2="143" y2="78" gradientUnits="userSpaceOnUse">
<stop stop-color="#623CE7"/>
<stop offset="1" stop-color="#9C3CE7"/>
</linearGradient>
</defs>
</svg>
